<svg width="24" height="24" viewBox="0 0 24 24" fill="none" xmlns="http://www.w3.org/2000/svg">
  <g clip-path="url(#clip0_11_60)">
    <path d="M24 3.01006C23.0424 3.68553 21.9821 4.20217 20.86 4.54006C20.2577 3.84757 19.4573 3.35675 18.567 3.13398C17.6767 2.91122 16.7395 2.96725 15.8821 3.29451C15.0247 3.62177 14.2884 4.20446 13.773 4.96377C13.2575 5.72309 12.9877 6.62239 13 7.54006V8.54006C11.2426 8.58562 9.50127 8.19587 7.93101 7.4055C6.36074 6.61513 5.01032 5.44869 4 4.01006C4 4.01006 0 13.0101 9 17.0101C6.94053 18.408 4.48716 19.109 2 19.0101C11 24.0101 22 19.0101 22 7.51006C21.9991 7.23151 21.9723 6.95365 21.92 6.68006C22.9406 5.67355 23.6608 4.40277 24 3.01006V3.01006Z" stroke="white" stroke-width="2" stroke-linecap="round" stroke-linejoin="round"/>
  </g>
  <defs>
    <clipPath id="clip0_11_60">
      <rect width="24" height="24" fill="white"/>
    </clipPath>
  </defs>
</svg>
