<svg id="Capa_1" data-name="Capa 1" xmlns="http://www.w3.org/2000/svg" viewBox="0 0 800 800"><defs><style>.cls-1{fill:transparent;}.cls-2{fill:#fff;stroke:#000;stroke-miterlimit:10;stroke-width:25px;}</style></defs><rect class="cls-1" width="800" height="800"/><path d="M319,78.73V56.26q0-19.12,6.22-25.35t25.35-6.22H390.7q18.66,0,24.87,6.22t6.22,25.35V79.21q0,15.32,4.3,18.41t31.57,7.9q6.69,1.42,26.78,7.65,8.61,2.4,13.39,2.39t12.91-2.87q20.09-7.17,28.7-7.17,25.34,0,56.91,42.56,33.46,45,33.48,87.52,0,24.87-13.87,40.17t-35.87,15.31q-16.26,0-26.55-6.94T499.26,237q-43-39.69-93.26-39.69-21.51,0-35.15,11.72t-13.63,30.36q0,25.83,28.7,41.13,11,6.22,88,29.18,77,23.43,116.69,58.82,50.68,45.92,50.69,119.56,0,75.09-54,125.78A268.26,268.26,0,0,1,517,661.72q-40.17,19.13-75.56,22-12.91.94-16.27,4.78t-3.34,17.7v22q0,19.11-6.22,25.34t-24.87,6.22H350.53q-19.14,0-25.35-6.22T319,728.2v-22q0-12.91-2.63-17t-11.24-5a484,484,0,0,1-82.49-17.94q-40.89-12.66-55.24-24.63-18.18-14.82-33.24-59.3t-15.06-82.74q0-20.08,9.32-31.8T153,456.07q18.17,0,37.3,22,5.26,6.23,32.53,48.3Q241,554.6,273.77,570.61t71.5,16q31.08,0,50.93-11.47t19.85-29.66q0-22-27.26-37.3-9.09-4.77-81.78-31.09Q133.4,415.43,133.4,284.86q0-73.17,59.78-128.17,46.4-43.05,104.74-54.52,15.3-2.88,18.17-6.22T319,78.73Z"/><path class="cls-2" d="M393.55,90V67.51q0-19.13,6.22-25.34T425.11,36h40.18q18.65,0,24.87,6.22t6.21,25.34v23q0,15.32,4.31,18.41t31.56,7.89q6.69,1.44,26.78,7.65,8.61,2.4,13.39,2.4T585.33,124q20.08-7.19,28.69-7.18,25.35,0,56.91,42.57,33.48,45,33.48,87.52,0,24.87-13.87,40.17t-35.87,15.3q-16.26,0-26.54-6.93t-54.28-47.11Q530.8,208.6,480.59,208.6q-21.52,0-35.15,11.71t-13.63,30.37q0,25.83,28.69,41.13,11,6.22,88,29.17,77,23.44,116.69,58.83,50.7,45.92,50.7,119.56,0,75.09-54,125.78A268.15,268.15,0,0,1,591.54,673Q551.37,692.09,516,695q-12.92,1-16.26,4.79t-3.35,17.69v22q0,19.13-6.21,25.35T465.29,771H425.11q-19.12,0-25.34-6.22t-6.22-25.35v-22q0-12.91-2.63-17t-11.24-5a483.87,483.87,0,0,1-82.5-17.93q-40.89-12.67-55.24-24.63-18.18-14.82-33.23-59.3t-15.07-82.74q0-20.09,9.33-31.8t24.63-11.72q18.17,0,37.3,22,5.25,6.21,32.52,48.3,18.16,28.23,50.93,44.24t71.5,16q31.08,0,50.94-11.48t19.84-29.65q0-22-27.26-37.3-9.09-4.79-81.78-31.09Q208,426.68,208,296.12q0-73.18,59.78-128.18,46.38-43,104.74-54.52,15.3-2.86,18.17-6.21T393.55,90Z"/></svg>