<svg xmlns="http://www.w3.org/2000/svg" viewBox="0 0 188.99999 220.28334"><g id="Capa_2" data-name="Capa 2"><g id="Capa_1-2" data-name="Capa 1"><g id="logo_transparent" data-name="logo transparent"><path d="M78.57229,31.28326,0,109.85567,78.57233,188.428l78.57237-78.57233ZM27.932,109.77045l51.24282-51.2428,51.24287,51.24283-51.24289,51.2428Z" style="fill:#e13a4f"/><path d="M172.22237,16.20563l-.00007-.00008a55.72231,55.72231,0,0,0-78.57228,0L77.57229,32.28326l78.57241,78.57237L172.22243,94.7779A55.72242,55.72242,0,0,0,172.22237,16.20563Zm-16.147,68.02844-12.15281,12.1528L92.5584,45.02271l12.1528-12.1528c16.3325-16.33257,41.25248-18.13859,55.37762-4.01345S172.40792,67.9015,156.07542,84.23407Z" style="fill:#e13a4f"/><path d="M172.79448,125.50548,156.1447,108.85563,77.57233,187.428l16.64978,16.64986a55.72237,55.72237,0,0,0,78.57228,0l.00007-.00008A55.72237,55.72237,0,0,0,172.79448,125.50548Zm-12.47857,65.40608v.00007c-14.05261,14.0526-38.77656,12.32389-54.942-3.84163L92.91738,174.61347,144.01785,123.513l12.45645,12.45653C172.63982,152.13507,174.36852,176.859,160.31591,190.91156Z" style="fill:#e13a4f"/></g><rect x="124.27893" y="115.21399" width="19.13903" height="9.56949" transform="translate(143.64157 299.4958) rotate(-134.99997)" style="fill:#b22e40"/><rect x="144.45031" y="95.02135" width="18.90338" height="9.45169" transform="translate(192.19518 279.10426) rotate(-134.99999)" style="fill:#b22e40"/><rect x="79.1472" y="30.04905" width="19.565" height="9.4517" transform="translate(127.22291 122.24727) rotate(-134.99999)" style="fill:#b22e40"/></g></g></svg>